PathFileType	4	(X/Y/Z)	24_1_40_p0_0-269.trc
DataRate	CameraRate	NumFrames	NumMarkers	Units	OrigDataRate	OrigDataStartFrame	OrigNumFrames
59.0	59.0	6	27	m	59.0	135	270
Frame#	Time	RHip			RKnee			RAnkle			RBigToe			RSmallToe			RHeel			LHip			LKnee			LAnkle			LBigToe			LSmallToe			LHeel			Neck			Head			Nose			RShoulder			RElbow			RWrist			RThumb			RIndex			RPinky			LShoulder			LElbow			LWrist			LThumb			LIndex			LPinky			
		X1	Y1	Z1	X2	Y2	Z2	X3	Y3	Z3	X4	Y4	Z4	X5	Y5	Z5	X6	Y6	Z6	X7	Y7	Z7	X8	Y8	Z8	X9	Y9	Z9	X10	Y10	Z10	X11	Y11	Z11	X12	Y12	Z12	X13	Y13	Z13	X14	Y14	Z14	X15	Y15	Z15	X16	Y16	Z16	X17	Y17	Z17	X18	Y18	Z18	X19	Y19	Z19	X20	Y20	Z20	X21	Y21	Z21	X22	Y22	Z22	X23	Y23	Z23	X24	Y24	Z24	X25	Y25	Z25	X26	Y26	Z26	X27	Y27	Z27	
135	2.288135593220339	0.4228633413450063	0.5124899620307618	0.8804159677661249	0.42887707618714355	0.6141728383563567	1.3071309567736973	0.4075280978841047	0.7093803599037848	1.6994502814804138	0.4079851635289989	0.48491244379279586	1.6825387758067125	0.461576777815251	0.5195194843076472	1.6851555893450718	0.38054021320008485	0.7914139723615436	1.7573706185038365	0.22720078968307483	0.5032110582937284	0.8815677649312297	0.2039071219753599	0.5824342282781125	1.300690889421381	0.1974340644738922	0.6645991395537104	1.6875588514082085	0.24661698847737645	0.45827665845340093	1.6774936004124221	0.18856298586753775	0.5202151720422397	1.6974189087198184	0.19197174025595443	0.7239699249250696	1.7340908065054237	0.3155752423421371	0.465247957691258	0.3303515325811192	0.2729490471247841	0.4363823798392692	0.10794344434640976	0.30732266308703704	0.3187841707362092	0.21704485844178395	0.48816224543715075	0.45744566109294016	0.4013824776304227	0.5508804283340246	0.49637577616000567	0.611652818479668	0.4822305977598735	0.2700042532109263	0.6723525439407179	0.4120634348167981	0.2272238809282901	0.7143032908975512	0.428456079426267	0.1689439749877101	0.7248198596309191	0.4434329934831769	0.17487701862217772	0.7511669613172633	0.1874157100799999	0.45643989711453564	0.4193904148071819	0.14686448894029663	0.39445706782957807	0.6426208477192705	0.3201058808377815	0.3257100510666144	0.7389002598998458	0.39584935402984855	0.26135106403304936	0.7654155227527687	0.39720716928297223	0.2631473574270833	0.7735176551256463	0.3659803112052721	0.2826745404400982	0.8092024609915749
136	2.305084745762712	0.4323343365051417	0.5030028071803235	0.8786071684400868	0.42889742887731314	0.6142667318810116	1.307214882654142	0.4075392564231684	0.7091631950397203	1.6992824349397275	0.40793795779245456	0.4848012555203846	1.6824043812763099	0.4615135833783478	0.5194352593636622	1.6850367162359892	0.3815171450286932	0.7942108096682604	1.7632361314710177	0.22718349905433494	0.5032200662123453	0.881404164972349	0.20389564990822784	0.582612232592959	1.3007968827490424	0.1975088508630132	0.6644468747992835	1.68747008752322	0.24655360406815527	0.4583520308030998	1.677549021143454	0.18849215309718875	0.5203255155240268	1.6974834473931342	0.2031979353652732	0.7105989854140474	1.7271558128999698	0.3157109096966105	0.46514179518676196	0.3304217322697629	0.2731855156936014	0.43635410271981595	0.10770348182001659	0.307496534286657	0.31874141676818807	0.21705778487636634	0.4853813282323778	0.4458657027590253	0.4010401003336102	0.5512145952878538	0.49549435593439767	0.6154228837767362	0.48227871916245885	0.26938991419388597	0.6760161682434653	0.4120584080466177	0.22701955486123776	0.7145105579219435	0.4285956441885031	0.16888018066481875	0.7248072969790806	0.4435791784912473	0.17500204488055948	0.7513706054994296	0.18751305157575235	0.456800526365387	0.41908602248662424	0.1468997396670451	0.3943831066734516	0.6426241564566463	0.32012998860142605	0.3255544281036558	0.739025650450635	0.3978695042046566	0.26966019501276667	0.7632708956980253	0.39757913972088804	0.26267591117800093	0.7802223520107062	0.36643335777395153	0.30610358640147073	0.8200583644013163
137	2.3220338983050848	0.42696787863458513	0.5173112652031209	0.8817546029960067	0.4296884761230911	0.613717992981892	1.3025688758416143	0.40756157123347553	0.7090427426489033	1.6991747998649733	0.4079536765803311	0.48510847232964416	1.6825548388823757	0.4615681882404585	0.5196967322696211	1.6851479322334095	0.38063329020429615	0.7912372764313984	1.756892977824607	0.2263541645527496	0.5050147354770727	0.8746064029247375	0.20391656428860486	0.5828666205931967	1.300917846360562	0.19749983314528516	0.6646304382799454	1.6875202150882587	0.24657260004058462	0.4586078722632268	1.6777039626516481	0.18845316089189967	0.520516094925633	1.6975762303381376	0.19610386710991853	0.7270896679676762	1.7350071076521811	0.3251556569618051	0.455779528524936	0.3306404946352532	0.28041872576067384	0.43597020201345643	0.10724547648639085	0.3075862685324359	0.31876211684420386	0.21697440979381388	0.48906474311663534	0.44784144354069705	0.40109642756477565	0.5557909818079868	0.4815727457144015	0.6135352799751456	0.4752372547265401	0.26737397820767606	0.6797842015005551	0.40601988472188283	0.22918931679585516	0.7320869208622477	0.41046543872759733	0.2027705481524081	0.7383703116092	0.44107043931966683	0.17234056213143464	0.7509097588694993	0.18726141547919792	0.45711025796829674	0.4150897390234219	0.146838940751895	0.39449051884709313	0.6426052970311452	0.3180837173109312	0.31458085402816627	0.7372607600225313	0.397903833165645	0.2672704257341323	0.7625621091740742	0.39961477171422066	0.2735347261345264	0.7789545783765698	0.37553272206794336	0.29408035369706886	0.8142126312750564
138	2.3389830508474576	0.43092655398694873	0.5187590167130804	0.8820253855639241	0.4296482884026162	0.6136599344995209	1.3026218028903085	0.40743664674660063	0.7091196572396394	1.699162972235424	0.4026283467685266	0.4993709164735116	1.6899981818352017	0.46150715459144837	0.5197209866988635	1.6851670164926795	0.3805710667098656	0.7913958884415911	1.7568264187091085	0.22647470057565414	0.5047826605137389	0.8746997295420937	0.2038621145516199	0.5827745957717009	1.300715614749395	0.19751162651226598	0.664381100078118	1.6873061211799663	0.2466113317211389	0.45863769934530396	1.6776309872816482	0.18847946798333123	0.5203783951231246	1.6973734098623223	0.20325804765099031	0.7108083402890443	1.7271417458335876	0.3253583245469494	0.4536288997977605	0.32970140016785754	0.28071021404667507	0.43649947624750973	0.10680458445475226	0.31259350160745075	0.3056357737906513	0.21376111313718493	0.4888344194472694	0.4480350581522537	0.40513855328940535	0.5507513930679291	0.4960759937777907	0.6188668693602705	0.4750403301274175	0.26795164266810945	0.6803432782800637	0.40587823881714274	0.22916146673846946	0.7318815667433543	0.4106079856361925	0.20300904860065974	0.7383517264115006	0.44097217221405965	0.17323976963951332	0.7517412610645123	0.18741213318056965	0.4589202599594684	0.41886695970481813	0.1468575191499985	0.39434415085819785	0.642733557377623	0.31806578755794795	0.31422868845986734	0.7373923210698019	0.3980831348145654	0.2673077571824397	0.7628692016303882	0.3987620592302739	0.274072392169755	0.7864720426863366	0.37494539217024586	0.2944565941599326	0.8177595119141225
139	2.3559322033898304	0.4324579707936674	0.5031039571446398	0.8789049850136496	0.42966326500877966	0.6136412941382587	1.3026026654796998	0.40742171016609313	0.7090845322685881	1.6992364409515706	0.4060179683993593	0.4714522372921341	1.6763725745591616	0.4613393836002069	0.51935692010374	1.6850280516933944	0.3805834835118234	0.7914718762536443	1.7568690518263665	0.2268634661005059	0.5041304249215118	0.877977607610153	0.20386073601953644	0.5828074965634398	1.3007719032695129	0.1974918368649956	0.6646231661868593	1.6874539765202783	0.2465961309984371	0.45878279487208834	1.6777833895921934	0.1884726792739758	0.520538114090415	1.6974850911577228	0.19615542387026405	0.7277603182037418	1.7353417503658553	0.32544130300529833	0.4535672323277478	0.32968647922768307	0.28470589066102964	0.4389919871765663	0.10278117171587028	0.31317245110098463	0.33188684280950886	0.21637033836959352	0.4890470246442649	0.44781097028348904	0.40840528260581627	0.5461659367274762	0.5096432491298172	0.6207214200929972	0.47502694404379403	0.26780450508634485	0.6804140793717636	0.40660279448732634	0.23156380907451307	0.7330867128891252	0.41623903109004656	0.19146284720800816	0.7387962207124249	0.43862655013224533	0.18766447994861554	0.7550297492949085	0.18747505124379507	0.4588613113495488	0.41864906302387095	0.14696401247697527	0.39445240638034146	0.6427388451035438	0.3178421673241257	0.3146924646899467	0.7375613675982746	0.39458095086100037	0.26739516239714645	0.7666128861988571	0.39544107042912796	0.27436768513980786	0.7906147700733653	0.3678463839355598	0.293807651274955	0.8185249875675012
140	2.3728813559322033	0.4268610885614498	0.516951599453594	0.8819275094969021	0.42958601915351924	0.613703014762238	1.3025585514334368	0.40737167319605744	0.7090746352643394	1.699305592589321	0.40262391136239745	0.49933252406992523	1.689946343286908	0.46144554084887723	0.5195428489405777	1.6851058481984462	0.38137984047986806	0.7937435543756356	1.7634339765304121	0.22688624364412704	0.5042759631325416	0.8780234964290413	0.2038124395036778	0.5827249695056312	1.300374828370324	0.19743844135940963	0.6646940565270246	1.6875409215506911	0.24653996183524501	0.458851259314859	1.6779036881274623	0.18838101332392218	0.5207922992987059	1.6977927481909783	0.19614941210641734	0.7272495325858404	1.7351025752570648	0.32941966992402366	0.4545638092501039	0.32950954193862636	0.28504936559271293	0.43865683366095615	0.1060464485834722	0.31254820895199803	0.3056432406988533	0.21387485616824992	0.4890026857274306	0.44773091343357185	0.4084572628977005	0.546388172083984	0.5096368755494409	0.6181416499707787	0.47393033178920363	0.2810885307335229	0.6821668726326462	0.4140425159895786	0.2202887533713283	0.727239588552506	0.41908700480114286	0.19398115390761705	0.74005039406935	0.4442964000355553	0.1763523299462401	0.752395616973369	0.1912658834288565	0.4597719233130705	0.411210075857897	0.14069516075399982	0.4068403497536482	0.6445443104255018	0.3177529022406894	0.3143389383368502	0.7451851605084039	0.3942005947691877	0.2651441541663805	0.762779781859994	0.394915113606743	0.2718671270610817	0.7870366926623144	0.37140423102134723	0.29386360561186675	0.8216945592500516
